<?xml version="1.0" encoding="UTF-8" standalone="no"?>
<!DOCTYPE svg PUBLIC "-//W3C//DTD SVG 1.1//EN" "http://www.w3.org/Graphics/SVG/1.1/DTD/svg11.dtd">
<svg width="100%" height="100%" viewBox="0 0 4414 724" version="1.1" xmlns="http://www.w3.org/2000/svg" xmlns:xlink="http://www.w3.org/1999/xlink" xml:space="preserve" xmlns:serif="http://www.serif.com/" style="fill-rule:evenodd;clip-rule:evenodd;stroke-linecap:round;stroke-linejoin:round;stroke-miterlimit:1.5;">
    <g transform="matrix(1,0,0,1,-6869.52,-3832.79)">
        <g transform="matrix(1,0,0,1,6294.27,3388.51)">
            <g id="logo-grey" serif:id="logo grey">
                <g transform="matrix(1,0,0,1,1236.14,-45.1405)">
                    <text x="313.573px" y="1004.2px" style="font-family:'EuclidCircularB-Bold', 'Euclid Circular B', sans-serif;font-weight:700;font-size:600px;fill:rgb(198,205,216);">p<tspan x="687.373px 1061.17px 1331.17px 1502.17px 1854.37px 2217.97px 2487.97px 2628.97px 3003.37px 3251.17px 3422.17px " y="1004.2px 1004.2px 1004.2px 1004.2px 1004.2px 1004.2px 1004.2px 1004.2px 1004.2px 1004.2px 1004.2px ">atient grid</tspan></text>
                </g>
                <g transform="matrix(1.84581,0,0,1.84581,-2391.96,-1111.1)">
                    <g id="image">
                        <g id="Triangle-logo" serif:id="Triangle logo">
                            <g transform="matrix(0.541768,0,0,0.541768,1243.45,-4220.67)">
                                <path d="M1388.86,9352.18L855.932,9352.18C757.889,9352.18 678.29,9431.78 678.29,9529.82L678.29,10062.7L1211.22,10062.7C1309.26,10062.7 1388.86,9983.15 1388.86,9885.11L1388.86,9352.18ZM1094.53,9886.92C1081.6,9909.32 1057.71,9923.1 1031.85,9923.1C1005.99,9923.1 982.09,9909.32 969.16,9886.92C918.878,9799.82 848.823,9678.48 799.655,9593.32C787.569,9572.38 787.569,9546.59 799.655,9525.66C811.742,9504.73 834.079,9491.83 858.253,9491.83L1213.61,9491.83C1236.1,9491.83 1256.88,9503.83 1268.12,9523.29C1279.37,9542.77 1279.37,9566.76 1268.12,9586.24C1218.82,9671.64 1146.23,9797.37 1094.53,9886.92Z" style="fill:rgb(198,205,216);stroke:rgb(198,205,216);stroke-width:12.5px;"/>
                            </g>
                            <g>
                                <g transform="matrix(-0.220946,2.70581e-17,-2.70581e-17,-0.220946,1982.89,1309.84)">
                                    <path d="M816.628,1097.46L1026.68,1461.28L606.578,1461.28L816.628,1097.46Z" style="fill:rgb(198,205,216);stroke:rgb(198,205,216);stroke-width:35.41px;"/>
                                </g>
                                <path d="M1848.9,986.434C1848.9,986.434 1886.62,950.096 1848.9,922.265" style="fill:none;stroke:rgb(198,205,216);stroke-width:7.82px;stroke-miterlimit:20;"/>
                                <g transform="matrix(1,0,0,1,0,-0.375538)">
                                    <path d="M1756.47,987.302C1756.47,987.302 1704.23,980.373 1709.84,1033.93" style="fill:none;stroke:rgb(198,205,216);stroke-width:7.82px;stroke-miterlimit:20;"/>
                                </g>
                                <g transform="matrix(1,0,0,1,-0.375538,0.375538)">
                                    <path d="M1802.36,1066.19C1802.36,1066.19 1836.71,1106.55 1876.61,1066.19" style="fill:none;stroke:rgb(198,205,216);stroke-width:7.82px;stroke-miterlimit:20;"/>
                                </g>
                            </g>
                        </g>
                    </g>
                </g>
            </g>
        </g>
    </g>
</svg>
