<?xml version="1.0" encoding="UTF-8" standalone="no"?>
<!DOCTYPE svg PUBLIC "-//W3C//DTD SVG 1.1//EN" "http://www.w3.org/Graphics/SVG/1.1/DTD/svg11.dtd">
<svg width="100%" height="100%" viewBox="0 0 750 750" version="1.1" xmlns="http://www.w3.org/2000/svg" xmlns:xlink="http://www.w3.org/1999/xlink" xml:space="preserve" xmlns:serif="http://www.serif.com/" style="fill-rule:evenodd;clip-rule:evenodd;stroke-linecap:round;stroke-linejoin:round;stroke-miterlimit:1.5;">
    <g transform="matrix(1,0,0,1,-580.148,-3804.04)">
        <clipPath id="_clip1">
            <rect x="588.507" y="3803.85" width="750.362" height="750.367"/>
        </clipPath>
        <g clip-path="url(#_clip1)">
            <g transform="matrix(0.310241,0,0,1,14.1698,3370.18)">
                <g id="multi1">
                    <rect x="8.002" y="1.622" width="5888.3" height="1475.03" style="fill:none;"/>
                    <g transform="matrix(5.94959,0,0,1.84581,-7700.1,-1111.1)">
                        <g id="logo-multi" serif:id="logo multi">
                            <g id="image">
                                <g id="Triangle-logo" serif:id="Triangle logo">
                                    <g transform="matrix(0.964897,0,0,0.964897,1428.98,402.231)">
                                        <path d="M587.529,459.959L288.303,459.959C233.253,459.959 188.561,504.652 188.561,559.701L188.561,858.928L487.787,858.928C542.836,858.928 587.529,814.235 587.529,759.185L587.529,459.959Z" style="fill:none;stroke:rgb(62,62,244);stroke-width:11.7px;"/>
                                    </g>
                                    <g transform="matrix(0.541768,0,0,0.541768,-2080.39,-424.856)">
                                        <path d="M6997.78,2696.56C6997.78,2693.92 6997.39,2687.24 6996.27,2685.01C6994.9,2682.27 6996.64,2675.37 6996.64,2672.09C6996.64,2656.31 6999.47,2643.95 7009.53,2633.75C7013.46,2629.78 7013.36,2624.02 7019.83,2621.71C7021.65,2621.06 7023.7,2619.1 7026.11,2618.49C7032.75,2616.83 7038.4,2614.71 7044.74,2612.85C7048.12,2611.85 7049.51,2609.26 7052.39,2607.8C7057.57,2605.18 7066.53,2606.2 7072.47,2606.2C7074.61,2606.2 7078.91,2606.28 7080.05,2607.41C7081.18,2608.55 7084.82,2607.51 7086.06,2608.75C7093.17,2615.86 7092.74,2629.89 7099.9,2637.05C7102.65,2639.79 7102.74,2644.99 7105.13,2647.38C7109.05,2651.3 7110.95,2659.27 7114.97,2663.29C7117.2,2665.53 7117.33,2669.23 7119.58,2671.48C7121.16,2673.05 7121.46,2676.45 7123.16,2678.15C7127.23,2682.22 7131.66,2691.68 7134.46,2697.28C7135.24,2698.84 7136.19,2701.59 7137.4,2702.8C7141.54,2706.94 7145.12,2714.1 7147.78,2719.41C7148.85,2721.55 7149.69,2724.54 7151.11,2725.96C7154.99,2729.83 7160.34,2737.97 7163.02,2743.33C7164.12,2745.53 7165.94,2749.25 7167.66,2750.97C7169.57,2752.88 7169.64,2756.84 7171.67,2758.86C7174.17,2761.37 7177.73,2763.47 7180.29,2766.03C7184.98,2770.72 7192.58,2770.99 7199.17,2774.29C7201.22,2775.32 7204.37,2776.81 7205.86,2778.3C7207.1,2779.55 7209.71,2779.12 7210.96,2780.37C7211.89,2781.3 7214.7,2780.34 7215.57,2781.22C7216.43,2782.08 7218.93,2781.52 7220.12,2781.94C7223.99,2783.31 7227.94,2782.53 7231.6,2783.82C7236.23,2785.45 7242,2784.69 7247.24,2784.69C7249.07,2784.69 7252.15,2785.16 7253.56,2784.45C7256.59,2782.91 7262.28,2783.14 7264.66,2780.73C7265.47,2779.91 7267.51,2780.3 7268.31,2779.5C7269.84,2777.95 7273.5,2778.54 7275.11,2776.91C7276.83,2775.17 7281.28,2774.92 7282.99,2773.19C7283.42,2772.75 7290.08,2771.27 7290.16,2771.35C7290.48,2771.67 7290.08,2772.72 7290.4,2773.05C7290.65,2773.3 7290.24,2774.9 7290.15,2774.99C7288.56,2776.56 7289.02,2780.73 7287.44,2782.28C7286.56,2783.15 7286.61,2785.53 7285.72,2786.41C7283.76,2788.35 7282.68,2791.08 7281.54,2793.33C7280.93,2794.53 7281.01,2796.28 7279.94,2797.34C7276.8,2800.44 7275.66,2806.06 7272.92,2808.76C7272.11,2809.56 7270.4,2811.31 7269.72,2812.65C7268.86,2814.35 7266.7,2817.69 7265.41,2818.96C7261.66,2822.66 7262.43,2828.82 7258.73,2832.47C7255.57,2835.59 7253.39,2840.68 7251.22,2844.96C7247.82,2851.69 7242.18,2859.49 7237.54,2866.62C7235.12,2870.34 7231.5,2875.07 7230.21,2879.47C7229.68,2881.25 7228.52,2885.7 7227.54,2886.67C7223.5,2890.65 7217.06,2891.42 7212.93,2895.5C7211.15,2897.25 7207.75,2898.88 7205.94,2900.66C7203.4,2903.17 7201.57,2905.73 7197.82,2907.59C7193.18,2909.88 7187.81,2911.39 7183.12,2913.7C7180.46,2915.01 7176.55,2914.9 7173.68,2915.73C7155.88,2920.87 7135.66,2911.8 7124.06,2900.19C7122.03,2898.17 7117.86,2897.28 7116.05,2893.66C7115.17,2891.89 7112.59,2889.83 7110.89,2888.12C7106.91,2884.15 7105.88,2877.32 7102.43,2873.87C7100.31,2871.75 7097.25,2868.01 7095.66,2864.84C7093.39,2860.3 7090.98,2854.51 7088.1,2851.63C7086.19,2849.72 7085.43,2845.64 7083.55,2843.75C7081.33,2841.54 7080.85,2838.42 7079.11,2836.69C7077.62,2835.19 7077.41,2831.92 7075.91,2830.43C7072.47,2826.98 7071.53,2822.6 7068.53,2819.6C7063.86,2814.93 7062.8,2806.28 7058.23,2801.72C7053.32,2796.81 7049.74,2787.92 7046.54,2781.53C7044.1,2776.65 7040.56,2772.45 7038.93,2766.85C7036.03,2756.96 7029.01,2749.73 7026.09,2740.98C7024.35,2735.74 7020.54,2733.08 7018.34,2728.67C7013.95,2719.89 7008.25,2711.26 7004.18,2703.14C7002.56,2699.89 6999.74,2694.51 6997.17,2691.94C6996.49,2691.26 6994.46,2688.64 6994.46,2687.63" style="fill:rgb(73,196,150);"/>
                                        <path d="M6993.69,2685.25C6992.69,2685.57 6991.96,2686.52 6991.96,2687.63C6991.96,2688.21 6992.2,2689.12 6992.73,2690.08C6993.4,2691.31 6994.55,2692.78 6995.19,2693.48C6995.25,2694.71 6995.28,2695.82 6995.28,2696.56C6995.28,2697.94 6996.4,2699.06 6997.78,2699.06C6998.22,2699.06 6998.64,2698.94 6999.01,2698.74C7000.15,2700.69 7001.18,2702.73 7001.95,2704.26C7006.01,2712.38 7011.71,2721.01 7016.1,2729.79C7017.28,2732.14 7018.87,2734.04 7020.41,2736.04C7021.69,2737.7 7022.95,2739.44 7023.72,2741.77C7025.24,2746.31 7027.8,2750.47 7030.38,2754.77C7032.75,2758.73 7035.14,2762.82 7036.53,2767.55C7038.21,2773.3 7041.8,2777.64 7044.3,2782.65C7047.61,2789.26 7051.39,2798.41 7056.47,2803.48C7058.54,2805.55 7059.76,2808.59 7061.05,2811.6C7062.6,2815.22 7064.22,2818.82 7066.76,2821.36C7068.09,2822.7 7068.94,2824.36 7069.86,2826.04C7071.01,2828.14 7072.24,2830.29 7074.15,2832.2C7074.82,2832.87 7075.03,2834.08 7075.43,2835.14C7075.92,2836.44 7076.52,2837.63 7077.35,2838.45C7078.03,2839.14 7078.41,2840.12 7078.9,2841.12C7079.63,2842.64 7080.46,2844.2 7081.78,2845.52C7082.53,2846.28 7083,2847.5 7083.53,2848.7C7084.32,2850.49 7085.18,2852.25 7086.33,2853.4C7089.06,2856.13 7091.28,2861.66 7093.42,2865.95C7095.12,2869.36 7098.39,2873.37 7100.66,2875.64C7102.19,2877.17 7103.12,2879.49 7104.18,2881.83C7105.49,2884.74 7106.92,2887.7 7109.12,2889.89C7110.64,2891.42 7113.02,2893.19 7113.82,2894.78C7114.95,2897.05 7116.77,2898.5 7118.68,2899.66C7120.01,2900.47 7121.4,2901.07 7122.29,2901.96C7134.46,2914.13 7155.7,2923.52 7174.37,2918.13C7177.37,2917.27 7181.44,2917.32 7184.23,2915.94C7188.92,2913.63 7194.28,2912.12 7198.93,2909.83C7202.96,2907.84 7204.97,2905.14 7207.7,2902.44C7209.51,2900.65 7212.91,2899.03 7214.68,2897.28C7216.54,2895.44 7218.94,2894.4 7221.31,2893.32C7224.21,2892 7227.07,2890.65 7229.29,2888.45C7229.74,2888.01 7230.3,2887.12 7230.76,2885.97C7231.51,2884.14 7232.22,2881.48 7232.6,2880.18C7233.84,2875.99 7237.33,2871.52 7239.64,2867.98C7244.33,2860.78 7250.01,2852.89 7253.45,2846.09C7255.5,2842.05 7257.5,2837.2 7260.49,2834.25C7262.64,2832.12 7263.59,2829.32 7264.45,2826.46C7265.06,2824.4 7265.6,2822.29 7267.17,2820.74C7268.59,2819.34 7271,2815.66 7271.95,2813.78C7272.52,2812.65 7274,2811.21 7274.68,2810.54C7276.23,2809.01 7277.38,2806.69 7278.53,2804.28C7279.42,2802.41 7280.32,2800.48 7281.69,2799.12C7282.42,2798.41 7282.87,2797.53 7283.17,2796.57C7283.4,2795.85 7283.46,2795.07 7283.77,2794.46C7284.8,2792.43 7285.71,2789.93 7287.48,2788.19C7288.1,2787.58 7288.57,2786.6 7288.87,2785.49C7289.01,2784.99 7289.27,2784.11 7289.32,2783.93C7290.18,2783.01 7290.72,2781.6 7291.06,2780.02C7291.23,2779.22 7291.37,2778.38 7291.57,2777.63C7291.66,2777.3 7291.71,2776.97 7291.91,2776.77C7292.04,2776.64 7292.27,2776.4 7292.45,2775.98C7292.59,2775.69 7292.91,2774.55 7292.97,2773.73C7293.01,2773.17 7292.91,2772.67 7292.77,2772.27C7292.76,2771.87 7292.74,2771.13 7292.65,2770.81C7292.5,2770.31 7292.25,2769.9 7291.92,2769.58C7291.83,2769.49 7291.04,2768.65 7289.54,2768.9C7288.58,2769.06 7284.71,2769.93 7282.98,2770.49C7282,2770.81 7281.4,2771.24 7281.21,2771.44C7280.92,2771.74 7280.45,2771.91 7279.96,2772.1C7279.13,2772.42 7278.21,2772.68 7277.33,2772.98C7275.71,2773.53 7274.25,2774.22 7273.33,2775.16C7273.14,2775.35 7272.84,2775.4 7272.55,2775.49C7271.86,2775.68 7271.11,2775.79 7270.39,2775.94C7268.97,2776.23 7267.68,2776.72 7266.77,2777.51C7266.48,2777.56 7265.57,2777.71 7265.09,2777.82C7264.19,2778.03 7263.43,2778.41 7262.88,2778.97C7261.99,2779.88 7260.42,2780.14 7258.85,2780.47C7256.51,2780.95 7254.11,2781.36 7252.43,2782.22C7252,2782.43 7251.32,2782.35 7250.62,2782.34C7249.42,2782.31 7248.18,2782.19 7247.24,2782.19C7242.28,2782.19 7236.82,2783.01 7232.43,2781.46C7230.39,2780.74 7228.27,2780.57 7226.12,2780.41C7224.41,2780.29 7222.67,2780.19 7220.95,2779.59C7220.37,2779.38 7219.58,2779.28 7218.73,2779.26C7218.22,2779.25 7217.33,2779.2 7217.03,2779.18C7216.41,2778.7 7215.56,2778.39 7214.53,2778.33C7213.93,2778.29 7212.77,2778.28 7212.38,2778.28C7211.6,2777.66 7210.62,2777.27 7209.55,2777.03C7209.11,2776.92 7208.65,2776.84 7208.22,2776.73C7208,2776.67 7207.77,2776.68 7207.62,2776.53C7205.99,2774.89 7202.55,2773.18 7200.29,2772.05C7196.88,2770.35 7193.21,2769.41 7189.78,2768.3C7186.87,2767.36 7184.13,2766.33 7182.06,2764.26C7179.5,2761.7 7175.94,2759.6 7173.44,2757.1C7172.46,2756.12 7172.17,2754.54 7171.66,2753.14C7171.11,2751.61 7170.43,2750.21 7169.43,2749.2C7167.86,2747.64 7166.26,2744.22 7165.25,2742.21C7162.47,2736.65 7156.9,2728.21 7152.88,2724.19C7152.36,2723.67 7151.99,2722.83 7151.6,2721.95C7151.07,2720.72 7150.57,2719.4 7150.02,2718.3C7147.25,2712.77 7143.48,2705.34 7139.17,2701.03C7138.11,2699.97 7137.38,2697.53 7136.7,2696.16C7133.8,2690.36 7129.15,2680.6 7124.93,2676.38C7124.13,2675.58 7123.82,2674.26 7123.36,2673.09C7122.83,2671.77 7122.2,2670.56 7121.35,2669.71C7120.23,2668.59 7119.83,2666.99 7119.22,2665.53C7118.6,2664.05 7117.86,2662.65 7116.74,2661.52C7114.9,2659.69 7113.6,2656.92 7112.26,2654.2C7110.66,2650.95 7109.03,2647.74 7106.9,2645.61C7105.94,2644.66 7105.55,2643.09 7105.02,2641.54C7104.23,2639.23 7103.3,2636.91 7101.67,2635.28C7098.36,2631.97 7096.9,2627.02 7095.35,2622.13C7093.54,2616.44 7091.65,2610.8 7087.82,2606.98C7086.97,2606.12 7085.52,2605.67 7083.87,2605.58C7083.14,2605.53 7081.89,2605.45 7081.57,2605.42C7080.97,2604.92 7080.03,2604.48 7078.88,2604.21C7076.91,2603.76 7074.11,2603.7 7072.47,2603.7C7068.86,2603.7 7064.15,2603.33 7059.83,2603.61C7056.61,2603.81 7053.6,2604.38 7051.26,2605.57C7049.92,2606.25 7048.84,2607.12 7047.8,2608.02C7046.71,2608.96 7045.68,2609.96 7044.03,2610.45C7037.72,2612.31 7032.11,2614.41 7025.5,2616.07C7024.05,2616.44 7022.69,2617.18 7021.43,2617.96C7020.56,2618.51 7019.76,2619.08 7018.99,2619.35C7015.07,2620.75 7013.1,2623.16 7011.56,2625.86C7010.39,2627.91 7009.56,2630.17 7007.76,2632C6997.22,2642.68 6994.14,2655.57 6994.14,2672.09C6994.14,2674.01 6993.51,2677.22 6993.32,2680.05C6993.18,2682.04 6993.28,2683.88 6993.69,2685.25ZM7078.4,2609.29C7078.26,2609.25 7077.59,2609.04 7077.12,2608.96C7075.56,2608.72 7073.65,2608.7 7072.47,2608.7C7068.95,2608.7 7064.36,2608.33 7060.15,2608.6C7057.67,2608.76 7055.32,2609.12 7053.52,2610.03C7052.26,2610.67 7051.35,2611.57 7050.37,2612.41C7048.99,2613.57 7047.51,2614.64 7045.44,2615.24C7039.07,2617.12 7033.39,2619.24 7026.72,2620.92C7025.53,2621.22 7024.46,2621.96 7023.46,2622.59C7022.48,2623.2 7021.55,2623.75 7020.67,2624.06C7017.52,2625.19 7016.37,2627.4 7015.2,2629.62C7014.13,2631.66 7013.07,2633.73 7011.31,2635.51C7001.72,2645.23 6999.14,2657.05 6999.14,2672.09C6999.14,2674.1 6998.51,2677.44 6998.3,2680.4C6998.2,2681.8 6998.11,2683.1 6998.51,2683.89C6999.23,2685.33 6999.71,2688.43 6999.99,2691.34C7002.41,2694.3 7004.92,2699.01 7006.42,2702.02C7010.48,2710.15 7016.19,2718.77 7020.57,2727.55C7021.6,2729.61 7023.02,2731.24 7024.37,2732.99C7025.97,2735.07 7027.49,2737.28 7028.47,2740.19C7029.87,2744.39 7032.28,2748.22 7034.66,2752.2C7037.25,2756.51 7039.82,2760.99 7041.33,2766.15C7042.92,2771.59 7046.4,2775.67 7048.78,2780.41C7051.86,2786.59 7055.26,2795.21 7060,2799.95C7062.49,2802.44 7064.09,2806.01 7065.64,2809.63C7066.93,2812.65 7068.18,2815.71 7070.3,2817.83C7071.97,2819.5 7073.09,2821.53 7074.25,2823.64C7075.18,2825.35 7076.14,2827.12 7077.68,2828.66C7078.51,2829.49 7079.11,2830.67 7079.6,2831.97C7079.99,2833.03 7080.21,2834.24 7080.88,2834.92C7081.76,2835.8 7082.42,2836.93 7083.03,2838.19C7083.64,2839.44 7084.19,2840.86 7085.31,2841.99C7086.45,2843.12 7087.3,2844.88 7088.1,2846.67C7088.63,2847.87 7089.1,2849.1 7089.87,2849.86C7092.9,2852.89 7095.51,2858.95 7097.9,2863.72C7099.37,2866.67 7102.22,2870.13 7104.2,2872.11C7106.11,2874.02 7107.42,2876.84 7108.74,2879.77C7109.8,2882.13 7110.87,2884.58 7112.65,2886.36C7114.54,2888.24 7117.31,2890.59 7118.29,2892.55C7119.14,2894.24 7120.72,2895.08 7122.13,2895.89C7123.55,2896.7 7124.88,2897.47 7125.82,2898.42C7136.86,2909.46 7156.06,2918.21 7172.99,2913.33C7174.52,2912.89 7176.34,2912.68 7178.12,2912.42C7179.52,2912.22 7180.9,2912.01 7182.01,2911.46C7186.71,2909.14 7192.07,2907.63 7196.71,2905.34C7200.19,2903.63 7201.84,2901.2 7204.19,2898.88C7206,2897.1 7209.4,2895.47 7211.17,2893.72C7213.45,2891.47 7216.34,2890.09 7219.23,2888.77C7221.57,2887.71 7223.91,2886.7 7225.71,2884.96C7225.78,2884.83 7226.18,2883.99 7226.4,2883.39C7226.98,2881.77 7227.5,2879.8 7227.81,2878.77C7229.17,2874.15 7232.9,2869.16 7235.45,2865.25C7240.04,2858.2 7245.62,2850.49 7248.99,2843.83C7251.28,2839.32 7253.64,2833.98 7256.98,2830.69C7258.52,2829.16 7259.04,2827.07 7259.66,2825.02C7260.52,2822.16 7261.48,2819.34 7263.66,2817.18C7264.81,2816.05 7266.72,2813.04 7267.49,2811.52C7268.28,2809.97 7270.23,2807.91 7271.16,2806.98C7272.35,2805.81 7273.14,2803.97 7274.02,2802.12C7275.17,2799.73 7276.41,2797.3 7278.18,2795.56C7278.49,2795.26 7278.49,2794.78 7278.59,2794.37C7278.78,2793.6 7278.98,2792.84 7279.31,2792.2C7280.54,2789.77 7281.77,2786.86 7283.85,2784.74C7283.91,2784.56 7284.17,2783.69 7284.3,2783.2C7284.61,2782.08 7285.07,2781.11 7285.69,2780.5C7285.88,2780.31 7285.92,2779.99 7286.01,2779.66C7286.21,2778.91 7286.35,2778.06 7286.52,2777.26C7286.73,2776.27 7287.03,2775.34 7287.44,2774.56L7284.36,2775.32C7283.45,2776.07 7282.17,2776.64 7280.77,2777.12C7279.9,2777.41 7278.98,2777.68 7278.15,2778C7277.65,2778.19 7277.19,2778.37 7276.89,2778.67C7275.93,2779.64 7274.53,2780.2 7272.98,2780.52C7272.37,2780.65 7271.74,2780.76 7271.15,2780.89C7270.74,2780.98 7270.33,2781 7270.09,2781.25C7269.54,2781.8 7268.78,2782.19 7267.88,2782.4C7267.41,2782.51 7266.51,2782.65 7266.22,2782.7C7264.98,2783.83 7263.19,2784.57 7261.19,2785.06C7258.94,2785.62 7256.36,2785.83 7254.69,2786.68C7253.85,2787.1 7252.64,2787.32 7251.29,2787.34C7249.91,2787.36 7248.35,2787.19 7247.24,2787.19C7241.72,2787.19 7235.65,2787.9 7230.77,2786.18C7229.15,2785.61 7227.47,2785.52 7225.77,2785.4C7223.62,2785.25 7221.44,2785.06 7219.29,2784.3C7219.08,2784.23 7218.78,2784.26 7218.47,2784.26C7217.76,2784.24 7217,2784.24 7216.35,2784.15C7215.5,2784.02 7214.78,2783.74 7214.22,2783.33L7212.71,2783.32C7211.23,2783.3 7209.95,2782.89 7209.19,2782.13C7209.05,2781.99 7208.81,2781.99 7208.6,2781.94C7208.16,2781.83 7207.7,2781.74 7207.26,2781.64C7206.02,2781.35 7204.9,2780.88 7204.09,2780.07C7202.75,2778.73 7199.9,2777.45 7198.06,2776.53C7194.87,2774.94 7191.44,2774.09 7188.25,2773.06C7184.55,2771.87 7181.15,2770.42 7178.52,2767.8C7175.96,2765.24 7172.4,2763.14 7169.9,2760.63C7168.84,2759.58 7168.14,2758.15 7167.58,2756.62C7167.07,2755.21 7166.81,2753.65 7165.89,2752.74C7164.02,2750.86 7161.98,2746.85 7160.78,2744.45C7158.2,2739.29 7153.07,2731.45 7149.35,2727.73C7147.77,2726.15 7146.73,2722.89 7145.55,2720.53C7143,2715.44 7139.6,2708.54 7135.64,2704.57C7134.27,2703.2 7133.11,2700.16 7132.23,2698.4C7129.53,2693 7125.32,2683.84 7121.39,2679.92C7120.49,2679.02 7119.84,2677.78 7119.3,2676.46C7118.83,2675.29 7118.55,2673.99 7117.82,2673.25C7116.45,2671.88 7115.66,2670.11 7114.95,2668.3C7114.48,2667.14 7114.08,2665.93 7113.2,2665.06C7111.02,2662.88 7109.36,2659.65 7107.77,2656.4C7106.43,2653.68 7105.15,2650.93 7103.36,2649.14C7102.17,2647.95 7101.36,2646.23 7100.69,2644.34C7100.01,2642.41 7099.53,2640.21 7098.14,2638.82C7094.29,2634.97 7092.38,2629.33 7090.58,2623.64C7089.05,2618.82 7087.63,2613.97 7084.45,2610.68C7084.14,2610.66 7082.89,2610.55 7082.18,2610.51C7080.6,2610.44 7079.22,2610.02 7078.4,2609.29Z" style="fill:white;"/>
                                    </g>
                                    <g transform="matrix(0.541768,0,0,0.541768,-2080.39,-424.856)">
                                        <path d="M7259.17,2485.53C7277.24,2485.53 7296.62,2488.06 7315.88,2488.06C7323.41,2488.06 7330.43,2488.18 7337.95,2488.18C7341.12,2488.18 7344.92,2487.03 7347.93,2488.1C7350.88,2489.14 7355.71,2488.35 7358.88,2488.35C7359.72,2488.35 7361.62,2487.97 7362.38,2488.35C7363.08,2488.7 7364.97,2488.16 7365.48,2488.67C7366.94,2490.14 7371.38,2488.72 7372.85,2490.19C7374.94,2492.28 7380.92,2493.03 7383.07,2495.18C7386.43,2498.54 7393.88,2503.19 7396.25,2507.94C7398.57,2512.58 7401.49,2518.87 7404.9,2522.28C7405.48,2522.87 7406.2,2525.06 7406.5,2526.11C7407.37,2529.11 7409.03,2531.89 7409.9,2534.88C7410.52,2537 7410.69,2539.32 7411.61,2541.16C7412.84,2543.62 7411.02,2548.8 7409.9,2549.91C7409.33,2550.47 7409.88,2551.93 7409.36,2552.44C7409.11,2552.69 7409.36,2554.59 7409.36,2554.95C7409.36,2557.71 7409.67,2559.91 7409.16,2562.73C7408.97,2563.8 7409.71,2567.44 7408.9,2568.24C7408.15,2568.99 7408.27,2570.96 7407.73,2572.04C7406.24,2574.98 7405.36,2578.43 7404.09,2581.47C7397.78,2596.67 7388.27,2611.64 7377.09,2622.68C7374.79,2624.95 7373.73,2629.52 7371.06,2632.16C7369.66,2633.54 7370.77,2637.43 7369.2,2638.97C7364.38,2643.73 7362.71,2655.19 7359.44,2661.64C7358.15,2664.18 7358,2667.17 7356.23,2668.92C7353.9,2671.22 7351.8,2673.19 7349.82,2675.14C7347.68,2677.25 7346.8,2679.92 7344.9,2681.79C7344.29,2682.39 7344.27,2684.07 7343.6,2684.73C7341.92,2686.38 7340.23,2689.55 7338.66,2691.1C7335.82,2693.91 7334.34,2700.14 7331.73,2702.72C7328.99,2705.43 7329.65,2711.84 7326.81,2714.64C7325.01,2716.42 7321.98,2722.13 7321.13,2725.01C7319.36,2731.01 7315.1,2735.03 7312.61,2739.93C7311.11,2742.9 7308.66,2747.03 7306.69,2748.97C7303.89,2751.74 7301.8,2755.17 7298.78,2758.15C7297.18,2759.73 7294.22,2759.91 7292.59,2761.52C7288.31,2765.75 7281.15,2768.17 7276.55,2772.7C7273.79,2775.43 7267.83,2775.21 7265.35,2777.66C7262.93,2780.05 7257.98,2779.55 7255.41,2782.09C7254.26,2783.22 7250.63,2781.83 7249.5,2782.93C7248.15,2784.27 7244.13,2785.01 7241.81,2785.68C7240.86,2785.95 7238.37,2785.35 7237.72,2785.99C7236.89,2786.81 7233.53,2785.46 7232.45,2785.99C7230.96,2786.73 7224.48,2785.66 7223.62,2784.79C7223.09,2784.26 7221,2784.6 7220.31,2784.26C7217.39,2782.8 7213.63,2784.06 7210.81,2782.65C7204.11,2779.3 7192.47,2776.35 7187.25,2771.14C7183.36,2767.25 7176.97,2763.33 7173.32,2759.68C7172.06,2758.43 7172.64,2754.58 7171.39,2753.33C7170.55,2752.49 7170.36,2746.77 7171.07,2745.33C7172.86,2741.69 7176.4,2737.57 7178.98,2734.97C7182.73,2731.16 7182.59,2723.93 7186.38,2720.08C7188.12,2718.33 7188.9,2715.07 7190.5,2713.46C7193.53,2710.38 7194.79,2705.7 7197.77,2702.68C7199.26,2701.17 7201.23,2698.24 7202.41,2695.84C7204.16,2692.31 7205.65,2689.7 7207.52,2685.92C7208.41,2684.11 7208.83,2681.6 7210.16,2680.25C7211.36,2679.03 7211.59,2675.98 7212.31,2674.51C7214.1,2670.89 7216.1,2667.04 7218.96,2664.15C7221.6,2661.47 7222.67,2657.26 7224.68,2655.23C7226.59,2653.3 7226.16,2649.24 7227.84,2647.54C7232.56,2642.76 7233.77,2634.9 7238.6,2630.01C7240.14,2628.45 7240.28,2625.42 7241.87,2623.81C7244.77,2620.87 7245.02,2615.7 7247.77,2612.91C7250.22,2610.43 7250.56,2605.66 7253.3,2602.88C7258.24,2597.87 7265.17,2593.04 7269.12,2585.03C7270.83,2581.57 7272.4,2577.48 7274.39,2573.45C7275.63,2570.95 7275.82,2567.21 7277.45,2565.55C7279.05,2563.93 7278.57,2559.83 7280.3,2558.07C7282.64,2555.71 7280.9,2549.8 7282.3,2546.96C7283.74,2544.05 7283.47,2539.41 7283.47,2535.85C7283.47,2535.18 7283.65,2532.5 7283.25,2532.1C7282.46,2531.32 7282.87,2529.42 7282.29,2528.26C7280.26,2524.19 7282.01,2517.37 7278.76,2514.12C7275.86,2511.22 7270.88,2508.95 7267.66,2505.74C7265.63,2503.71 7266.16,2498.58 7263.92,2496.34C7263.09,2495.51 7264.18,2492.85 7263.39,2492.06C7262.72,2491.39 7259.43,2486.96 7259.76,2486.29C7260.78,2484.22 7265.24,2486.08 7266.61,2484.68" style="fill:rgb(62,62,244);"/>
                                        <path d="M7265.08,2482.71C7264.91,2482.73 7264.51,2482.76 7264.25,2482.76C7263.56,2482.76 7262.83,2482.71 7262.15,2482.73C7261.44,2482.75 7260.78,2482.85 7260.19,2483.03L7259.17,2483.03C7257.79,2483.03 7256.67,2484.15 7256.67,2485.53C7256.67,2486.2 7256.94,2486.81 7257.37,2487.26C7257.44,2487.53 7257.53,2487.83 7257.68,2488.13C7258.34,2489.56 7260.21,2492.14 7261.17,2493.31C7261.14,2493.84 7261.06,2495.07 7261.11,2495.69C7261.2,2496.71 7261.59,2497.53 7262.16,2498.1C7262.56,2498.51 7262.76,2499.09 7262.95,2499.71C7263.25,2500.68 7263.44,2501.76 7263.68,2502.77C7264.13,2504.69 7264.8,2506.41 7265.9,2507.51C7269.11,2510.72 7274.09,2512.99 7276.99,2515.89C7278.23,2517.13 7278.32,2519.1 7278.49,2521.09C7278.74,2524.04 7278.91,2527.09 7280.05,2529.38C7280.17,2529.61 7280.14,2529.91 7280.17,2530.21C7280.22,2530.71 7280.27,2531.21 7280.36,2531.65C7280.48,2532.24 7280.68,2532.76 7280.96,2533.21L7280.97,2535.85C7280.97,2539.05 7281.35,2543.24 7280.06,2545.85C7279.23,2547.54 7279.19,2550.13 7279.15,2552.66C7279.14,2553.56 7279.11,2554.45 7278.95,2555.24C7278.87,2555.66 7278.78,2556.05 7278.52,2556.32C7277.53,2557.32 7276.94,2558.81 7276.57,2560.45C7276.39,2561.27 7276.25,2562.12 7276.04,2562.89C7275.94,2563.24 7275.88,2563.59 7275.67,2563.8C7274.77,2564.71 7274.12,2566.05 7273.64,2567.58C7273.15,2569.14 7272.84,2570.95 7272.15,2572.34C7270.16,2576.38 7268.59,2580.46 7266.88,2583.93C7263.06,2591.67 7256.3,2596.28 7251.52,2601.13C7249.92,2602.75 7248.96,2604.92 7248.11,2607.08C7247.5,2608.61 7247,2610.13 7245.99,2611.16C7244.38,2612.78 7243.44,2615.07 7242.54,2617.41C7241.9,2619.09 7241.3,2620.83 7240.09,2622.06C7239.22,2622.93 7238.63,2624.09 7238.14,2625.33C7237.74,2626.38 7237.52,2627.54 7236.82,2628.26C7234.21,2630.9 7232.53,2634.32 7230.92,2637.75C7229.54,2640.66 7228.23,2643.59 7226.06,2645.78C7225.1,2646.75 7224.52,2648.2 7224.12,2649.83C7223.92,2650.63 7223.76,2651.48 7223.51,2652.27C7223.36,2652.72 7223.2,2653.16 7222.9,2653.48C7221.94,2654.44 7221.13,2655.8 7220.34,2657.32C7219.46,2659.02 7218.59,2660.96 7217.18,2662.39C7214.14,2665.47 7211.98,2669.55 7210.07,2673.41C7209.65,2674.26 7209.35,2675.55 7209,2676.82C7208.83,2677.47 7208.73,2678.14 7208.38,2678.5C7207.64,2679.25 7207.07,2680.24 7206.61,2681.35C7206.13,2682.49 7205.79,2683.77 7205.28,2684.81C7203.41,2688.6 7201.92,2691.2 7200.17,2694.73C7199.1,2696.9 7197.34,2699.56 7195.99,2700.92C7194.35,2702.59 7193.15,2704.7 7191.97,2706.84C7191.01,2708.57 7190.07,2710.32 7188.72,2711.7C7187.91,2712.51 7187.24,2713.63 7186.63,2714.85C7186.01,2716.07 7185.48,2717.44 7184.6,2718.33C7182.44,2720.51 7181.32,2723.62 7180.29,2726.76C7179.51,2729.14 7178.82,2731.57 7177.2,2733.21C7174.47,2735.98 7170.73,2740.36 7168.83,2744.23C7168.21,2745.47 7167.97,2749.31 7168.34,2751.86C7168.56,2753.34 7169.08,2754.46 7169.52,2754.98C7169.55,2755.16 7169.85,2756.74 7169.98,2757.63C7170.22,2759.24 7170.74,2760.64 7171.55,2761.45C7175.2,2765.1 7181.6,2769.01 7185.49,2772.91C7187.76,2775.18 7191.13,2777.09 7194.85,2778.76C7199.93,2781.04 7205.7,2782.89 7209.69,2784.89C7211.13,2785.61 7212.75,2785.84 7214.43,2785.9C7216.05,2785.97 7217.75,2785.77 7219.19,2786.49C7219.57,2786.68 7220.12,2786.84 7220.78,2786.9C7221.21,2786.94 7222.04,2786.98 7222.39,2786.99C7222.61,2787.13 7222.86,2787.27 7223.17,2787.4C7223.86,2787.7 7224.96,2788.01 7226.2,2788.25C7227.94,2788.59 7229.95,2788.79 7231.35,2788.72C7232.11,2788.68 7232.75,2788.55 7233.22,2788.38C7233.59,2788.43 7235.39,2788.7 7236.27,2788.75C7237.36,2788.82 7238.26,2788.58 7238.91,2788.2C7239.23,2788.2 7239.99,2788.22 7240.43,2788.24C7241.26,2788.27 7242.01,2788.22 7242.5,2788.08C7244.19,2787.59 7246.75,2787.05 7248.61,2786.31C7249.55,2785.93 7250.35,2785.48 7250.93,2785C7251.31,2785.01 7252.42,2785.03 7253.07,2785.06C7254.8,2785.12 7256.31,2784.71 7257.17,2783.87C7258.42,2782.63 7260.44,2782.43 7262.22,2781.93C7264.12,2781.39 7265.85,2780.68 7267.11,2779.44C7268.09,2778.47 7269.81,2778.17 7271.51,2777.7C7274.09,2776.99 7276.65,2776.12 7278.31,2774.48C7280.46,2772.36 7283.23,2770.75 7285.95,2769.15C7289.04,2767.34 7292.06,2765.55 7294.34,2763.3C7295.1,2762.55 7296.27,2762.3 7297.32,2761.87C7298.54,2761.38 7299.67,2760.78 7300.54,2759.93C7303.56,2756.95 7305.65,2753.51 7308.45,2750.75C7310.57,2748.66 7313.23,2744.25 7314.85,2741.06C7317.39,2736.03 7321.72,2731.88 7323.53,2725.72C7324.29,2723.14 7326.96,2718.01 7328.57,2716.42C7330.29,2714.72 7331.1,2711.99 7331.74,2709.21C7332.16,2707.42 7332.41,2705.57 7333.49,2704.5C7334.96,2703.04 7336.18,2700.59 7337.37,2698.06C7338.29,2696.11 7339.17,2694.11 7340.41,2692.88C7341.99,2691.33 7343.68,2688.16 7345.35,2686.51C7345.73,2686.14 7346.05,2685.65 7346.29,2685.07C7346.49,2684.6 7346.77,2683.66 7346.85,2683.37C7347.84,2682.34 7348.61,2681.13 7349.39,2679.88C7350.02,2678.87 7350.65,2677.83 7351.57,2676.92C7353.55,2674.97 7355.66,2673 7357.99,2670.7C7358.95,2669.75 7359.6,2668.55 7360.1,2667.2C7360.62,2665.8 7360.94,2664.21 7361.67,2662.77C7363.35,2659.45 7364.64,2654.85 7366.11,2650.47C7367.4,2646.61 7368.78,2642.9 7370.95,2640.76C7371.96,2639.76 7372.45,2638.24 7372.62,2636.55C7372.68,2635.92 7372.7,2635.26 7372.77,2634.66C7372.8,2634.39 7372.89,2633.96 7372.92,2633.83C7374.39,2632.34 7375.46,2630.36 7376.45,2628.41C7377.2,2626.91 7377.86,2625.42 7378.84,2624.46C7390.25,2613.2 7399.96,2597.93 7406.4,2582.43C7407.64,2579.44 7408.49,2576.05 7409.96,2573.17C7410.22,2572.64 7410.41,2571.97 7410.55,2571.27C7410.64,2570.82 7410.8,2570.02 7410.85,2569.81C7411.32,2569.22 7411.71,2568.25 7411.78,2567.03C7411.84,2565.72 7411.5,2563.87 7411.62,2563.18C7412.16,2560.19 7411.86,2557.87 7411.86,2554.95C7411.86,2554.76 7411.8,2553.76 7411.77,2553.28C7411.88,2553.04 7411.96,2552.78 7412.02,2552.5C7412.09,2552.17 7412.11,2551.51 7412.11,2551.13C7412.79,2550.17 7413.59,2548.51 7414.06,2546.66C7414.66,2544.3 7414.68,2541.71 7413.85,2540.04C7412.99,2538.33 7412.87,2536.16 7412.3,2534.18C7411.43,2531.19 7409.77,2528.41 7408.9,2525.41C7408.66,2524.59 7408.19,2523.13 7407.71,2522.1C7407.37,2521.39 7406.99,2520.83 7406.67,2520.51C7403.42,2517.27 7400.7,2511.24 7398.49,2506.82C7397.42,2504.68 7395.47,2502.53 7393.23,2500.51C7390.28,2497.85 7386.83,2495.4 7384.84,2493.41C7383.55,2492.13 7381.18,2491.16 7378.77,2490.3C7377.14,2489.73 7375.46,2489.26 7374.62,2488.42C7373.66,2487.46 7372.01,2487 7370.12,2486.94C7369.44,2486.92 7368.73,2486.94 7368.06,2486.91C7367.74,2486.89 7367.25,2486.8 7367.11,2486.78C7366.6,2486.34 7365.83,2485.99 7364.84,2485.95C7364.37,2485.93 7363.43,2485.96 7363.16,2485.97C7362.71,2485.81 7362.14,2485.7 7361.5,2485.68C7360.61,2485.67 7359.48,2485.85 7358.88,2485.85C7355.95,2485.85 7351.49,2486.7 7348.77,2485.74C7347.26,2485.21 7345.61,2485.09 7343.91,2485.17C7341.9,2485.27 7339.82,2485.68 7337.95,2485.68C7330.43,2485.68 7323.41,2485.56 7315.88,2485.56C7299.95,2485.56 7283.93,2483.83 7268.64,2483.23C7268.56,2483.11 7268.47,2483.01 7268.37,2482.91C7267.47,2482.01 7266.05,2481.95 7265.08,2482.71ZM7263.47,2488.07C7264.17,2489.08 7264.89,2490.03 7265.16,2490.29C7265.78,2490.92 7266.19,2491.92 7266.2,2493.17C7266.2,2493.67 7266.14,2494.61 7266.11,2495.04C7267.26,2496.47 7267.86,2498.51 7268.31,2500.58C7268.49,2501.39 7268.66,2502.21 7268.9,2502.93C7269.04,2503.34 7269.17,2503.72 7269.43,2503.97C7272.64,2507.18 7277.63,2509.45 7280.53,2512.35C7282.2,2514.03 7282.97,2516.39 7283.3,2519.01C7283.66,2521.79 7283.42,2524.92 7284.53,2527.14C7284.83,2527.75 7285.01,2528.48 7285.1,2529.24L7285.26,2530.62C7285.51,2530.96 7285.77,2531.47 7285.89,2532.16C7286.07,2533.18 7285.97,2535.24 7285.97,2535.85C7285.97,2539.77 7286.12,2544.87 7284.55,2548.07C7284.26,2548.65 7284.23,2549.43 7284.19,2550.27C7284.14,2551.51 7284.18,2552.84 7284.11,2554.1C7283.98,2556.43 7283.39,2558.5 7282.08,2559.83C7281.83,2560.08 7281.74,2560.46 7281.63,2560.85C7281.41,2561.62 7281.27,2562.46 7281.09,2563.26C7280.73,2564.91 7280.16,2566.37 7279.23,2567.31C7278.67,2567.88 7278.46,2568.86 7278.18,2569.86C7277.73,2571.46 7277.32,2573.18 7276.64,2574.55C7274.64,2578.59 7273.07,2582.68 7271.36,2586.14C7267.28,2594.41 7260.19,2599.46 7255.08,2604.64C7253.66,2606.08 7253.07,2608.17 7252.3,2610.05C7251.58,2611.82 7250.75,2613.45 7249.55,2614.67C7248.4,2615.83 7247.85,2617.53 7247.21,2619.2C7246.31,2621.54 7245.33,2623.86 7243.65,2625.57C7242.92,2626.3 7242.69,2627.48 7242.29,2628.52C7241.81,2629.76 7241.22,2630.91 7240.38,2631.77C7238.16,2634.01 7236.81,2636.97 7235.44,2639.88C7233.82,2643.32 7232.17,2646.71 7229.62,2649.29C7229.38,2649.54 7229.29,2649.91 7229.17,2650.31C7228.93,2651.09 7228.77,2651.96 7228.55,2652.8C7228.14,2654.41 7227.51,2655.92 7226.45,2656.99C7225.61,2657.85 7225,2659.2 7224.28,2660.6C7223.32,2662.45 7222.23,2664.39 7220.74,2665.9C7218.07,2668.61 7216.23,2672.23 7214.56,2675.62C7214.17,2676.41 7213.97,2677.72 7213.62,2678.86C7213.23,2680.14 7212.66,2681.28 7211.94,2682.01C7211.5,2682.45 7211.27,2683.11 7211.02,2683.78C7210.61,2684.89 7210.24,2686.05 7209.76,2687.02C7207.9,2690.81 7206.4,2693.41 7204.66,2696.95C7203.36,2699.58 7201.19,2702.78 7199.55,2704.43C7198.22,2705.78 7197.3,2707.53 7196.34,2709.26C7195.16,2711.39 7193.95,2713.51 7192.28,2715.21C7191.64,2715.85 7191.22,2716.85 7190.73,2717.83C7190,2719.31 7189.2,2720.78 7188.16,2721.84C7186.52,2723.5 7185.82,2725.93 7185.04,2728.32C7184.01,2731.46 7182.89,2734.56 7180.76,2736.72C7178.35,2739.16 7175.03,2742.98 7173.34,2746.39C7173.32,2746.5 7173.16,2747.49 7173.14,2748.19C7173.11,2749.45 7173.4,2751.48 7173.46,2751.91C7174.09,2752.74 7174.51,2753.98 7174.72,2755.37C7174.81,2755.96 7174.87,2756.57 7174.97,2757.15C7175.02,2757.43 7175.14,2757.88 7175.18,2758.01C7178.85,2761.63 7185.16,2765.51 7189.02,2769.37C7190.92,2771.27 7193.78,2772.8 7196.89,2774.2C7202.05,2776.51 7207.88,2778.39 7211.93,2780.42C7213.02,2780.96 7214.3,2780.91 7215.59,2780.94C7217.52,2780.99 7219.46,2781.12 7221.19,2781.91C7221.48,2781.92 7222.57,2781.96 7223.11,2782.03C7223.97,2782.13 7224.66,2782.44 7225.13,2782.8C7225.44,2782.88 7228.03,2783.56 7229.6,2783.69C7230.31,2783.74 7231.34,2783.69 7231.49,2783.69C7232.05,2783.45 7232.83,2783.32 7233.74,2783.39C7234.52,2783.44 7236.09,2783.66 7236.61,2783.74C7237.12,2783.45 7237.78,2783.24 7238.56,2783.2C7239.36,2783.15 7241.03,2783.23 7241.22,2783.24C7242.58,2782.86 7244.49,2782.45 7246.08,2781.91C7246.77,2781.68 7247.41,2781.49 7247.75,2781.15C7248.59,2780.33 7250.09,2779.92 7251.84,2779.99C7252.47,2780.01 7253.58,2780.03 7253.95,2780.03C7255.51,2778.66 7257.64,2777.97 7259.8,2777.4C7261.22,2777.03 7262.67,2776.79 7263.59,2775.88C7264.85,2774.64 7266.76,2773.86 7268.87,2773.24C7270.99,2772.63 7273.41,2772.3 7274.8,2770.92C7277.24,2768.52 7280.34,2766.65 7283.42,2764.84C7286.13,2763.25 7288.83,2761.72 7290.83,2759.74C7291.71,2758.87 7292.85,2758.27 7294.07,2757.78C7295.12,2757.35 7296.28,2757.1 7297.03,2756.37C7300.04,2753.39 7302.14,2749.96 7304.94,2747.19C7306.76,2745.39 7308.99,2741.55 7310.39,2738.8C7312.8,2734.03 7317.01,2730.15 7318.73,2724.31C7319.67,2721.12 7323.07,2714.83 7325.06,2712.86C7325.63,2712.29 7325.94,2711.47 7326.22,2710.59C7326.61,2709.35 7326.88,2707.98 7327.2,2706.68C7327.77,2704.39 7328.58,2702.32 7329.97,2700.94C7331.11,2699.82 7331.93,2697.87 7332.85,2695.93C7334.03,2693.42 7335.3,2690.9 7336.9,2689.32C7338.43,2687.82 7340.06,2684.8 7341.69,2683.1C7341.75,2682.89 7341.98,2682.13 7342.12,2681.74C7342.37,2681.02 7342.73,2680.42 7343.15,2680.01C7343.95,2679.21 7344.53,2678.23 7345.15,2677.23C7345.97,2675.91 7346.85,2674.56 7348.06,2673.36C7350.04,2671.41 7352.15,2669.44 7354.48,2667.14C7355.09,2666.54 7355.35,2665.69 7355.64,2664.8C7356.1,2663.4 7356.51,2661.9 7357.21,2660.51C7359.13,2656.71 7360.48,2651.13 7362.28,2646.28C7363.64,2642.6 7365.29,2639.32 7367.44,2637.2C7367.64,2637 7367.57,2636.65 7367.61,2636.32C7367.68,2635.72 7367.71,2635.09 7367.76,2634.49C7367.91,2632.78 7368.38,2631.28 7369.3,2630.38C7370.73,2628.97 7371.58,2626.92 7372.52,2625.09C7373.35,2623.47 7374.24,2621.97 7375.33,2620.9C7386.29,2610.08 7395.6,2595.41 7401.78,2580.51C7403.07,2577.41 7403.98,2573.9 7405.5,2570.91C7405.82,2570.28 7405.8,2569.26 7406.01,2568.5C7406.19,2567.89 7406.44,2567.36 7406.75,2566.92C7406.75,2566.51 7406.74,2565.24 7406.69,2564.54C7406.62,2563.59 7406.62,2562.75 7406.7,2562.28C7407.18,2559.62 7406.86,2557.55 7406.86,2554.95C7406.86,2554.62 7406.71,2553.2 7406.78,2552.51C7406.83,2552.04 7406.96,2551.66 7407.11,2551.35C7407.12,2550.97 7407.14,2550.2 7407.23,2549.81C7407.38,2549.14 7407.69,2548.57 7408.14,2548.13C7408.53,2547.75 7408.91,2546.62 7409.21,2545.43C7409.5,2544.3 7409.77,2543.07 7409.37,2542.27C7408.39,2540.31 7408.16,2537.85 7407.5,2535.58C7406.63,2532.58 7404.97,2529.8 7404.1,2526.81C7403.9,2526.1 7403.12,2524.17 7403.03,2523.94C7399.5,2520.35 7396.42,2513.87 7394.01,2509.06C7392.96,2506.94 7390.72,2504.89 7388.42,2502.95C7385.78,2500.72 7383.02,2498.66 7381.3,2496.95C7380.43,2496.08 7378.74,2495.6 7377.1,2495.02C7374.77,2494.19 7372.49,2493.27 7371.21,2492.08C7371.06,2492.05 7370.58,2491.97 7370.27,2491.95C7369.6,2491.92 7368.89,2491.93 7368.21,2491.91C7366.7,2491.87 7365.33,2491.56 7364.36,2490.95C7364,2490.97 7363.35,2490.99 7362.98,2490.98C7362.41,2490.96 7361.91,2490.85 7361.51,2490.7C7361.24,2490.72 7359.44,2490.85 7358.88,2490.85C7355.47,2490.85 7350.28,2491.57 7347.1,2490.45C7345.92,2490.04 7344.58,2490.11 7343.23,2490.23C7341.43,2490.39 7339.61,2490.68 7337.95,2490.68C7330.43,2490.68 7323.41,2490.56 7315.88,2490.56C7298.14,2490.56 7280.3,2488.41 7263.47,2488.07Z" style="fill:white;"/>
                                    </g>
                                    <g transform="matrix(0.541768,-1.33556e-32,1.33556e-32,0.541768,-2080.39,-424.856)">
                                        <path d="M6986.14,2487.25C7000.37,2487.25 7014.8,2484.04 7029.04,2485.46C7036.9,2486.24 7044.93,2486.42 7052.76,2487.45C7056.66,2487.96 7061.8,2488.32 7065.74,2487.72C7073.81,2486.49 7082.34,2487.32 7090.5,2486.85C7101.55,2486.22 7112.49,2485 7123.57,2485C7138.57,2485 7153.95,2485.91 7168.9,2484.8C7185.18,2483.61 7201.59,2482.95 7217.95,2482.95C7225.53,2482.95 7233.06,2483.99 7240.63,2483.99C7242.63,2483.99 7244.93,2483.87 7246.76,2484.41C7247.18,2484.53 7248.56,2484.2 7248.86,2484.5C7251.66,2487.3 7255,2491.04 7258.12,2494.16C7259.22,2495.26 7261.98,2496.47 7262.48,2497.49C7263.74,2500.01 7266.53,2504.54 7268.79,2506.8C7271.73,2509.74 7274.35,2513.25 7276.55,2517.66C7278.94,2522.44 7279.27,2527.59 7280.76,2532.7C7281.57,2535.51 7280.34,2538.85 7281.15,2541.64C7281.66,2543.4 7280.85,2545.7 7281.46,2547.42C7282.28,2549.74 7282.15,2553.84 7281.55,2556.25C7278.94,2566.63 7276.55,2576.36 7269.56,2583.26C7267.81,2584.99 7267.01,2587.66 7265.36,2589.29C7264.23,2590.41 7263.56,2592.22 7262.82,2593.68C7261.35,2596.59 7259.16,2598.9 7257.19,2600.84C7253.8,2604.18 7248.03,2603.18 7243.77,2605.28C7242.24,2606.04 7239.75,2604.91 7238.12,2605.47C7235.51,2606.39 7232.37,2605.41 7229.68,2606.19C7220.5,2608.84 7208.84,2606.98 7199.14,2606.98C7188.84,2606.98 7178.98,2607.56 7168.62,2607.56C7164.33,2607.56 7158.99,2605.85 7154.81,2606.89C7148.12,2608.54 7140.24,2607.64 7133.16,2607.64C7120.71,2607.64 7107.72,2608.29 7095.44,2606.68C7090.94,2606.09 7086.33,2606.09 7081.74,2606.09C7080.6,2606.09 7078.02,2605.44 7076.92,2605.98C7075.26,2606.8 7070.34,2606.55 7068.6,2606.26C7063.91,2605.48 7057.29,2605.59 7053.06,2607.07C7048.55,2608.65 7042.41,2606.98 7038.17,2609.08C7037.28,2609.51 7035.19,2609.33 7034.57,2609.94C7033.06,2611.44 7028.73,2613 7026.66,2613.84C7025.36,2614.38 7023.53,2614.62 7022.65,2615.49C7020.4,2617.71 7019.4,2621.24 7017.12,2623.49C7013.94,2626.63 7009.65,2629.22 7007.57,2633.31C7006.37,2635.68 7005.18,2639.55 7003.51,2641.2C7002.99,2641.7 7003.42,2643.07 7003.12,2643.78C7002.17,2646.09 7002.3,2649.46 7001.1,2651.83C6997.17,2659.59 6997.49,2670.62 6991.52,2676.51C6990.7,2677.32 6988.2,2674.69 6987.85,2673.99C6986.82,2671.92 6983.92,2671.2 6982.32,2669.6C6981.53,2668.82 6980.93,2667.24 6979.74,2666.64C6979.05,2666.3 6977.62,2664.12 6977.32,2663.09C6976.27,2659.51 6973.24,2656.69 6972.14,2652.92C6970.86,2648.57 6966.94,2644.98 6964.98,2641.07C6964.25,2639.6 6962.67,2638.6 6962.2,2636.98C6961.22,2633.64 6958.25,2630.51 6957.37,2626.98C6956.45,2623.29 6953.34,2617.29 6950.7,2614.41C6949.31,2612.88 6948.4,2610.2 6947.14,2608.31C6943.11,2602.27 6941.23,2596.27 6937.14,2590.14C6935.18,2587.2 6933.2,2583.81 6931.65,2580.71C6930.17,2577.76 6928.79,2573.8 6927.67,2569.97C6924.24,2558.24 6919.44,2537.62 6928.59,2528.36C6930.45,2526.47 6930.69,2522.51 6932.64,2520.35C6933.71,2519.16 6934.72,2516.83 6935.38,2515.49C6937.73,2510.72 6944.39,2505.85 6949.24,2503.39C6955.59,2500.17 6961.85,2493.7 6969.83,2492.18C6978.44,2490.53 6987.87,2486.87 6996.38,2486.87" style="fill:rgb(65,152,247);"/>
                                        <path d="M6995.27,2484.39C6994.57,2484.41 6993.86,2484.46 6993.14,2484.53C6990.8,2484.67 6988.47,2484.75 6986.14,2484.75C6985.15,2484.75 6984.28,2485.34 6983.88,2486.18C6978.98,2487.36 6974.05,2488.83 6969.36,2489.72C6965.05,2490.54 6961.18,2492.67 6957.55,2495.06C6954.28,2497.22 6951.21,2499.59 6948.11,2501.16C6942.84,2503.83 6935.69,2509.2 6933.14,2514.38C6932.56,2515.56 6931.73,2517.63 6930.79,2518.67C6929.61,2519.98 6928.88,2521.8 6928.23,2523.61C6927.83,2524.74 6927.51,2525.89 6926.81,2526.6C6922.74,2530.73 6921.02,2536.83 6920.83,2543.56C6920.56,2552.89 6923.15,2563.43 6925.27,2570.67C6926.44,2574.65 6927.88,2578.76 6929.41,2581.83C6931.01,2585.02 6933.05,2588.5 6935.06,2591.52C6939.15,2597.66 6941.03,2603.66 6945.06,2609.7C6946.39,2611.69 6947.38,2614.48 6948.86,2616.09C6951.26,2618.73 6954.1,2624.21 6954.94,2627.58C6955.44,2629.58 6956.5,2631.47 6957.6,2633.33C6958.46,2634.78 6959.36,2636.2 6959.8,2637.68C6960.08,2638.66 6960.6,2639.49 6961.22,2640.27C6961.74,2640.91 6962.39,2641.46 6962.75,2642.19C6963.78,2644.25 6965.32,2646.25 6966.78,2648.29C6968,2649.98 6969.18,2651.71 6969.74,2653.62C6970.35,2655.73 6971.49,2657.59 6972.64,2659.41C6973.54,2660.84 6974.46,2662.22 6974.92,2663.79C6975.19,2664.73 6976.15,2666.43 6977.04,2667.5C6977.61,2668.2 6978.21,2668.67 6978.62,2668.88C6978.97,2669.05 6979.12,2669.46 6979.34,2669.78C6979.74,2670.38 6980.14,2670.95 6980.55,2671.37C6981.33,2672.15 6982.35,2672.78 6983.4,2673.4C6984.25,2673.9 6985.2,2674.28 6985.62,2675.11C6985.97,2675.81 6987.79,2677.9 6989.28,2678.67C6990.92,2679.53 6992.37,2679.19 6993.28,2678.29C6996.57,2675.04 6998.22,2670.42 6999.49,2665.5C7000.61,2661.21 7001.44,2656.69 7003.33,2652.96C7004.04,2651.56 7004.39,2649.88 7004.67,2648.19C7004.87,2646.96 7005.02,2645.73 7005.43,2644.74C7005.59,2644.36 7005.69,2643.92 7005.73,2643.44C7005.74,2643.18 7005.74,2642.74 7005.74,2642.44C7007.34,2640.45 7008.61,2636.8 7009.81,2634.44C7011.76,2630.58 7015.88,2628.23 7018.88,2625.27C7020.18,2623.99 7021.14,2622.36 7022.07,2620.71C7022.77,2619.47 7023.44,2618.22 7024.41,2617.26C7024.61,2617.07 7024.94,2617.02 7025.27,2616.92C7026.05,2616.66 7026.9,2616.45 7027.6,2616.16C7029.76,2615.28 7034.08,2613.6 7035.99,2612.02C7036.28,2611.98 7036.97,2611.88 7037.37,2611.83C7038.12,2611.73 7038.79,2611.55 7039.27,2611.32C7041.08,2610.42 7043.31,2610.41 7045.55,2610.38C7048.46,2610.33 7051.39,2610.3 7053.89,2609.43C7057.78,2608.06 7063.87,2608.01 7068.19,2608.73C7069.53,2608.95 7072.6,2609.16 7074.94,2608.95C7076.14,2608.84 7077.19,2608.6 7077.89,2608.28C7078.03,2608.28 7078.67,2608.28 7079.05,2608.32C7080.07,2608.43 7081.11,2608.59 7081.74,2608.59C7086.22,2608.59 7090.72,2608.58 7095.12,2609.16C7107.5,2610.78 7120.6,2610.14 7133.16,2610.14C7140.43,2610.14 7148.53,2611.01 7155.41,2609.31C7157.22,2608.86 7159.28,2609.06 7161.36,2609.32C7163.86,2609.63 7166.38,2610.06 7168.62,2610.06C7178.98,2610.06 7188.84,2609.48 7199.14,2609.48C7209.06,2609.48 7220.98,2611.3 7230.37,2608.59C7231.48,2608.27 7232.68,2608.36 7233.87,2608.38C7235.63,2608.42 7237.36,2608.39 7238.95,2607.83C7239.22,2607.74 7239.55,2607.81 7239.89,2607.84C7240.38,2607.89 7240.88,2607.96 7241.36,2608C7242.66,2608.12 7243.89,2608.01 7244.88,2607.53C7246.81,2606.58 7249.08,2606.38 7251.25,2605.99C7254.16,2605.47 7256.89,2604.65 7258.95,2602.62C7261.09,2600.51 7263.44,2597.98 7265.05,2594.81C7265.67,2593.58 7266.16,2592.01 7267.12,2591.07C7267.93,2590.27 7268.59,2589.28 7269.21,2588.23C7269.85,2587.13 7270.42,2585.93 7271.32,2585.04C7278.63,2577.83 7281.24,2567.71 7283.97,2556.86C7284.68,2554.05 7284.77,2549.29 7283.81,2546.59C7283.55,2545.84 7283.76,2544.95 7283.8,2544.08C7283.86,2542.98 7283.83,2541.9 7283.55,2540.94C7283.23,2539.82 7283.37,2538.59 7283.45,2537.35C7283.58,2535.52 7283.65,2533.68 7283.16,2532.01C7281.63,2526.74 7281.24,2521.46 7278.78,2516.54C7276.45,2511.87 7273.67,2508.15 7270.56,2505.03C7268.46,2502.93 7265.89,2498.72 7264.72,2496.37C7264.44,2495.8 7263.85,2495.14 7263,2494.52C7262.05,2493.81 7260.59,2493.09 7259.88,2492.39C7256.77,2489.28 7253.43,2485.54 7250.63,2482.73C7250.3,2482.4 7249.82,2482.1 7249.16,2481.95C7248.73,2481.86 7247.55,2481.91 7247.17,2481.93C7245.18,2481.42 7242.75,2481.49 7240.63,2481.49C7233.06,2481.49 7225.53,2480.45 7217.95,2480.45C7201.53,2480.45 7185.05,2481.11 7168.72,2482.31C7153.83,2483.41 7138.51,2482.5 7123.57,2482.5C7112.44,2482.5 7101.45,2483.72 7090.36,2484.36C7082.12,2484.83 7073.51,2484.01 7065.37,2485.25C7061.63,2485.82 7056.77,2485.45 7053.08,2484.97C7045.23,2483.93 7037.17,2483.76 7029.29,2482.97C7018.01,2481.85 7006.6,2483.6 6995.27,2484.39ZM7247.7,2486.88C7247.13,2486.89 7246.32,2486.88 7246.06,2486.81C7244.44,2486.34 7242.4,2486.49 7240.63,2486.49C7233.06,2486.49 7225.53,2485.45 7217.95,2485.45C7201.65,2485.45 7185.3,2486.1 7169.09,2487.3C7154.08,2488.41 7138.63,2487.5 7123.57,2487.5C7112.53,2487.5 7101.65,2488.71 7090.65,2489.35C7082.56,2489.82 7074.11,2488.97 7066.12,2490.19C7061.96,2490.82 7056.54,2490.47 7052.43,2489.93C7044.63,2488.9 7036.62,2488.73 7028.79,2487.95C7018.31,2486.9 7007.72,2488.39 6997.19,2489.24C6996.94,2489.32 6996.66,2489.37 6996.38,2489.37C6995.9,2489.37 6995.41,2489.38 6994.92,2489.41L6994.12,2489.46L6993.63,2489.49C6986.02,2490.14 6977.84,2493.19 6970.3,2494.63C6966.63,2495.33 6963.38,2497.2 6960.3,2499.23C6956.86,2501.5 6953.62,2503.97 6950.37,2505.62C6945.93,2507.87 6939.77,2512.23 6937.62,2516.59C6936.88,2518.1 6935.7,2520.69 6934.5,2522.02C6933.53,2523.1 6933.15,2524.76 6932.6,2526.22C6932.03,2527.74 6931.34,2529.13 6930.37,2530.11C6927.12,2533.4 6925.98,2538.34 6925.83,2543.7C6925.57,2552.51 6928.07,2562.44 6930.07,2569.27C6931.15,2572.95 6932.47,2576.75 6933.88,2579.59C6935.39,2582.61 6937.32,2585.89 6939.22,2588.75C6943.31,2594.89 6945.19,2600.89 6949.22,2606.92C6950.41,2608.72 6951.23,2611.27 6952.55,2612.72C6955.41,2615.86 6958.79,2622.36 6959.8,2626.37C6960.18,2627.91 6961.05,2629.35 6961.9,2630.78C6962.98,2632.61 6964.05,2634.42 6964.6,2636.28C6964.78,2636.91 6965.29,2637.34 6965.71,2637.82C6966.29,2638.49 6966.83,2639.18 6967.22,2639.95C6968.14,2641.79 6969.54,2643.55 6970.85,2645.37C6972.4,2647.53 6973.82,2649.78 6974.53,2652.22C6975.02,2653.88 6975.96,2655.31 6976.86,2656.74C6978.02,2658.56 6979.13,2660.38 6979.72,2662.39C6979.88,2662.92 6980.9,2664.29 6981.09,2664.53C6981.8,2664.93 6982.4,2665.52 6982.92,2666.19C6983.36,2666.76 6983.68,2667.43 6984.09,2667.83C6984.94,2668.68 6986.23,2669.21 6987.31,2669.93C6988.46,2670.7 6989.43,2671.61 6990.04,2672.78L6990.83,2673.52C6992.78,2670.98 6993.77,2667.67 6994.66,2664.24C6995.86,2659.61 6996.83,2654.73 6998.87,2650.7C6999.36,2649.73 6999.55,2648.55 6999.74,2647.38C6999.99,2645.83 7000.24,2644.3 7000.74,2643.02C7000.73,2642.79 7000.72,2641.97 7000.77,2641.57C7000.87,2640.66 7001.23,2639.93 7001.75,2639.42C7002.41,2638.77 7002.92,2637.66 7003.44,2636.5C7004.11,2634.99 7004.73,2633.4 7005.34,2632.18C7007.54,2627.85 7011.99,2625.03 7015.36,2621.71C7016.34,2620.74 7017.02,2619.48 7017.72,2618.24C7018.65,2616.6 7019.61,2614.98 7020.9,2613.7C7021.48,2613.13 7022.28,2612.68 7023.21,2612.34C7024.02,2612.04 7024.96,2611.84 7025.71,2611.53C7027.56,2610.78 7031.47,2609.5 7032.82,2608.16C7033.27,2607.71 7034.01,2607.32 7034.94,2607.12C7035.6,2606.99 7037,2606.81 7037.14,2606.8C7039.56,2605.63 7042.49,2605.43 7045.47,2605.38C7047.82,2605.34 7050.22,2605.41 7052.24,2604.71C7056.8,2603.11 7063.94,2602.95 7069.01,2603.8C7069.95,2603.95 7071.92,2604.09 7073.68,2604.02C7074.55,2603.98 7075.36,2603.96 7075.81,2603.74C7076.43,2603.43 7077.28,2603.26 7078.24,2603.26C7079.44,2603.27 7080.94,2603.59 7081.74,2603.59C7086.44,2603.59 7091.16,2603.59 7095.77,2604.2C7107.94,2605.8 7120.82,2605.14 7133.16,2605.14C7140.04,2605.14 7147.7,2606.07 7154.21,2604.46C7156.57,2603.87 7159.27,2604.02 7161.98,2604.36C7164.27,2604.64 7166.57,2605.06 7168.62,2605.06C7178.98,2605.06 7188.84,2604.48 7199.14,2604.48C7208.62,2604.48 7220.01,2606.38 7228.98,2603.79C7230.57,2603.33 7232.28,2603.35 7233.98,2603.39C7235.13,2603.41 7236.27,2603.47 7237.3,2603.11C7238.26,2602.78 7239.43,2602.76 7240.64,2602.89C7241.1,2602.94 7241.56,2603.01 7242,2603.04C7242.25,2603.06 7242.48,2603.13 7242.67,2603.04C7245,2601.89 7247.74,2601.54 7250.37,2601.07C7252.26,2600.73 7254.1,2600.38 7255.44,2599.06C7257.23,2597.29 7259.24,2595.21 7260.59,2592.55C7261.45,2590.86 7262.29,2588.81 7263.61,2587.51C7264.28,2586.85 7264.75,2585.95 7265.26,2585.07C7265.99,2583.79 7266.77,2582.51 7267.8,2581.49C7274.48,2574.9 7276.63,2565.55 7279.12,2555.64C7279.63,2553.62 7279.78,2550.2 7279.1,2548.25C7278.75,2547.28 7278.69,2546.17 7278.74,2545.04C7278.78,2544.11 7278.99,2543.15 7278.75,2542.34C7278.27,2540.67 7278.34,2538.84 7278.46,2537.01C7278.55,2535.77 7278.69,2534.53 7278.36,2533.4C7276.91,2528.43 7276.64,2523.42 7274.31,2518.78C7272.24,2514.63 7269.78,2511.33 7267.02,2508.57C7264.65,2506.2 7261.73,2501.53 7260.34,2498.79C7260.16,2498.66 7259.42,2498.12 7258.92,2497.8C7257.94,2497.18 7256.95,2496.53 7256.35,2495.93C7253.45,2493.03 7250.37,2489.6 7247.7,2486.88Z" style="fill:white;"/>
                                    </g>
                                    <g transform="matrix(-0.750014,9.18503e-17,-9.18503e-17,-0.750014,2414.95,2017.68)">
                                        <path d="M771.346,1175.89C780.686,1159.71 797.947,1149.75 816.628,1149.75C835.308,1149.75 852.569,1159.71 861.909,1175.89C898.23,1238.8 948.834,1326.45 984.35,1387.97C993.08,1403.09 993.08,1421.72 984.35,1436.84C975.619,1451.96 959.484,1461.28 942.022,1461.28L685.33,1461.28C669.086,1461.28 654.076,1452.61 645.954,1438.55C637.832,1424.48 637.832,1407.15 645.954,1393.08C681.572,1331.39 734.007,1240.57 771.346,1175.89Z" style="fill:none;stroke:white;stroke-width:10.43px;stroke-miterlimit:20;"/>
                                    </g>
                                    <g transform="matrix(-0.220946,2.70581e-17,-2.70581e-17,-0.220946,1982.89,1309.84)">
                                        <path d="M816.628,1097.46L1026.68,1461.28L606.578,1461.28L816.628,1097.46Z" style="fill:none;stroke:white;stroke-width:35.41px;"/>
                                    </g>
                                    <path d="M1848.9,986.434C1848.9,986.434 1886.62,950.096 1848.9,922.265" style="fill:none;stroke:white;stroke-width:7.82px;stroke-miterlimit:20;"/>
                                    <g transform="matrix(1,0,0,1,0,-0.375538)">
                                        <path d="M1756.47,987.302C1756.47,987.302 1704.23,980.373 1709.84,1033.93" style="fill:none;stroke:white;stroke-width:7.82px;stroke-miterlimit:20;"/>
                                    </g>
                                    <g transform="matrix(1,0,0,1,-0.375538,0.375538)">
                                        <path d="M1802.36,1066.19C1802.36,1066.19 1836.71,1106.55 1876.61,1066.19" style="fill:none;stroke:white;stroke-width:7.82px;stroke-miterlimit:20;"/>
                                    </g>
                                </g>
                            </g>
                        </g>
                    </g>
                </g>
            </g>
        </g>
    </g>
</svg>
